<?xml version="1.0" encoding="utf-8"?>
<!-- Generator: Adobe Illustrator 25.0.1, SVG Export Plug-In . SVG Version: 6.00 Build 0)  -->
<svg version="1.1" id="Layer_1" xmlns="http://www.w3.org/2000/svg" xmlns:xlink="http://www.w3.org/1999/xlink" x="0px" y="0px"
	 viewBox="0 0 1680 1080" style="enable-background:new 0 0 1680 1080;" xml:space="preserve">
<style type="text/css">
	.st0{fill:#FFFFFF;}
	.st1{fill:url(#SVGID_1_);}
	.st2{opacity:0.3;fill:#B3B3B3;enable-background:new    ;}
	.st3{fill:#CCCCCC;}
	.st4{fill:#E6E6E6;}
</style>
<rect class="st0" width="1680" height="420"/>
<radialGradient id="SVGID_1_" cx="840.7198" cy="87.4144" r="792.7098" gradientTransform="matrix(1.0005 0 0 -0.6427 -1.1402 806.1812)" gradientUnits="userSpaceOnUse">
	<stop  offset="0.2" style="stop-color:#FAFAFA"/>
	<stop  offset="1" style="stop-color:#F0F0F0"/>
</radialGradient>
<rect y="420" class="st1" width="1680" height="660"/>
<polygon class="st0" points="1650,1080 1319,734.7 1200.9,847.9 1423.4,1080 "/>
<polygon class="st2" points="1680,1080 1406.9,1080 1680,795 "/>
<polygon class="st3" points="1561.9,848.7 1680,735.5 1377.6,420 1151,420 "/>
<polygon class="st3" points="0,1080 294.6,1080 294.6,596.3 0.1,878.6 "/>
<polygon class="st2" points="294.6,604.2 294.6,858.4 506.9,1080 750.6,1080 "/>
<polygon class="st4" points="294.6,1080 294.6,727.3 0,420 0,772.7 "/>
<polygon class="st0" points="954.6,1080 954.3,1079.6 1170.6,872.3 1369.6,1080 "/>
</svg>
